REM DIRINDEX 1\2,1\3,1\4,1\5
REM DIRNAME cjc154,folder01,folder02,folder03,folder04
TITLE ""
FILE "CD2Track06.mp3" MP3
  TRACK 01 AUDIO
    TITLE "5:cjc154_1882"
    INDEX 01 00:00:00
  TRACK 02 AUDIO
    TITLE "0:"
    INDEX 01 00:01:48
  TRACK 03 AUDIO
    TITLE "2:cjc154_1883"
    INDEX 01 00:02:63
  TRACK 04 AUDIO
    TITLE "3:cjc154_1884"
    INDEX 01 00:05:30
  TRACK 05 AUDIO
    TITLE "2:cjc154_1885"
    INDEX 01 00:08:11
  TRACK 06 AUDIO
    TITLE "3:cjc154_1886"
    INDEX 01 00:10:35
  TRACK 07 AUDIO
    TITLE "2:cjc154_1887"
    INDEX 01 00:12:67
  TRACK 08 AUDIO
    TITLE "3:cjc154_1888"
    INDEX 01 00:14:60
  TRACK 09 AUDIO
    TITLE "2:cjc154_1889"
    INDEX 01 00:16:61
  TRACK 10 AUDIO
    TITLE "3:cjc154_1890"
    INDEX 01 00:18:29
  TRACK 11 AUDIO
    TITLE "2:cjc154_1891"
    INDEX 01 00:19:73
  TRACK 12 AUDIO
    TITLE "3:cjc154_1892"
    INDEX 01 00:22:13
  TRACK 13 AUDIO
    TITLE "2:cjc154_1893"
    INDEX 01 00:24:37
  TRACK 14 AUDIO
    TITLE "3:cjc154_1894"
    INDEX 01 00:26:07
  TRACK 15 AUDIO
    TITLE "2:cjc154_1895"
    INDEX 01 00:27:55
  TRACK 16 AUDIO
    TITLE "3:cjc154_1896"
    INDEX 01 00:29:40
  TRACK 17 AUDIO
    TITLE "2:cjc154_1897"
    INDEX 01 00:31:27
  TRACK 18 AUDIO
    TITLE "3:cjc154_1898"
    INDEX 01 00:33:73
  TRACK 19 AUDIO
    TITLE "2:cjc154_1899"
    INDEX 01 00:36:46
  TRACK 20 AUDIO
    TITLE "3:cjc154_1900"
    INDEX 01 00:39:05
  TRACK 21 AUDIO
    TITLE "2:cjc154_1901"
    INDEX 01 00:41:47
  TRACK 22 AUDIO
    TITLE "3:cjc154_1902"
    INDEX 01 00:43:44
  TRACK 23 AUDIO
    TITLE "2:cjc154_1903"
    INDEX 01 00:45:47
  TRACK 24 AUDIO
    TITLE "3:cjc154_1904"
    INDEX 01 00:47:64
  TRACK 25 AUDIO
    TITLE "2:cjc154_1905"
    INDEX 01 00:50:15
  TRACK 26 AUDIO
    TITLE "3:cjc154_1906"
    INDEX 01 00:52:32
  TRACK 27 AUDIO
    TITLE "2:cjc154_1907"
    INDEX 01 00:54:56
  TRACK 28 AUDIO
    TITLE "3:cjc154_1908"
    INDEX 01 00:56:72
  TRACK 29 AUDIO
    TITLE "2:cjc154_1909"
    INDEX 01 00:59:20
  TRACK 30 AUDIO
    TITLE "3:cjc154_1910"
    INDEX 01 01:01:29
  TRACK 31 AUDIO
    TITLE "2:cjc154_1911"
    INDEX 01 01:03:45
  TRACK 32 AUDIO
    TITLE "3:cjc154_1912"
    INDEX 01 01:04:66
  TRACK 33 AUDIO
    TITLE "2:cjc154_1913"
    INDEX 01 01:06:22
  TRACK 34 AUDIO
    TITLE "3:cjc154_1914"
    INDEX 01 01:08:52
  TRACK 35 AUDIO
    TITLE "2:cjc154_1915"
    INDEX 01 01:11:11
  TRACK 36 AUDIO
    TITLE "3:cjc154_1916"
    INDEX 01 01:12:40
  TRACK 37 AUDIO
    TITLE "2:cjc154_1917"
    INDEX 01 01:13:71
  TRACK 38 AUDIO
    TITLE "3:cjc154_1918"
    INDEX 01 01:15:52
  TRACK 39 AUDIO
    TITLE "2:cjc154_1919"
    INDEX 01 01:17:39
  TRACK 40 AUDIO
    TITLE "3:cjc154_1920"
    INDEX 01 01:19:46
  TRACK 41 AUDIO
    TITLE "2:cjc154_1921"
    INDEX 01 01:21:59
  TRACK 42 AUDIO
    TITLE "3:cjc154_1922"
    INDEX 01 01:24:16
  TRACK 43 AUDIO
    TITLE "2:cjc154_1923"
    INDEX 01 01:26:58
  TRACK 44 AUDIO
    TITLE "3:cjc154_1924"
    INDEX 01 01:28:51
  TRACK 45 AUDIO
    TITLE "2:cjc154_1925"
    INDEX 01 01:30:52
  TRACK 46 AUDIO
    TITLE "3:cjc154_1926"
    INDEX 01 01:32:21
  TRACK 47 AUDIO
    TITLE "2:cjc154_1927"
    INDEX 01 01:33:74
  TRACK 48 AUDIO
    TITLE "3:cjc154_1928"
    INDEX 01 01:36:64
  TRACK 49 AUDIO
    TITLE "2:cjc154_1929"
    INDEX 01 01:39:59
  TRACK 50 AUDIO
    TITLE "3:cjc154_1930"
    INDEX 01 01:41:03
  TRACK 51 AUDIO
    TITLE "2:cjc154_1931"
    INDEX 01 01:42:30
  TRACK 52 AUDIO
    TITLE "3:cjc154_1932"
    INDEX 01 01:44:60
  TRACK 53 AUDIO
    TITLE "2:cjc154_1933"
    INDEX 01 01:47:27
  TRACK 54 AUDIO
    TITLE "3:cjc154_1934"
    INDEX 01 01:49:32
  TRACK 55 AUDIO
    TITLE "2:cjc154_1935"
    INDEX 01 01:51:38
  TRACK 56 AUDIO
    TITLE "3:cjc154_1936"
    INDEX 01 01:53:14
  TRACK 57 AUDIO
    TITLE "2:cjc154_1937"
    INDEX 01 01:54:72
  TRACK 58 AUDIO
    TITLE "3:cjc154_1938"
    INDEX 01 01:56:32
  TRACK 59 AUDIO
    TITLE "2:cjc154_1939"
    INDEX 01 01:58:07
  TRACK 60 AUDIO
    TITLE "3:cjc154_1940"
    INDEX 01 02:00:24
  TRACK 61 AUDIO
    TITLE "2:cjc154_1941"
    INDEX 01 02:02:44
  TRACK 62 AUDIO
    TITLE "3:cjc154_1942"
    INDEX 01 02:04:39
  TRACK 63 AUDIO
    TITLE "2:cjc154_1943"
    INDEX 01 02:06:36
  TRACK 64 AUDIO
    TITLE "3:cjc154_1944"
    INDEX 01 02:08:33
  TRACK 65 AUDIO
    TITLE "2:cjc154_1945"
    INDEX 01 02:10:34
  TRACK 66 AUDIO
    TITLE "3:cjc154_1946"
    INDEX 01 02:12:29
  TRACK 67 AUDIO
    TITLE "2:cjc154_1947"
    INDEX 01 02:14:35
  TRACK 68 AUDIO
    TITLE "3:cjc154_1948"
    INDEX 01 02:16:48
  TRACK 69 AUDIO
    TITLE "2:cjc154_1949"
    INDEX 01 02:18:63
  TRACK 70 AUDIO
    TITLE "3:cjc154_1950"
    INDEX 01 02:20:05
  TRACK 71 AUDIO
    TITLE "2:cjc154_1951"
    INDEX 01 02:21:26
  TRACK 72 AUDIO
    TITLE "3:cjc154_1952"
    INDEX 01 02:23:34
  TRACK 73 AUDIO
    TITLE "2:cjc154_1953"
    INDEX 01 02:25:49
  TRACK 74 AUDIO
    TITLE "3:cjc154_1954"
    INDEX 01 02:27:28
  TRACK 75 AUDIO
    TITLE "2:cjc154_1955"
    INDEX 01 02:29:11
  TRACK 76 AUDIO
    TITLE "3:cjc154_1956"
    INDEX 01 02:30:32
  TRACK 77 AUDIO
    TITLE "2:cjc154_1957"
    INDEX 01 02:31:61
  TRACK 78 AUDIO
    TITLE "3:cjc154_1958"
    INDEX 01 02:34:01
  TRACK 79 AUDIO
    TITLE "2:cjc154_1959"
    INDEX 01 02:36:25
  TRACK 80 AUDIO
    TITLE "3:cjc154_1960"
    INDEX 01 02:38:28
  TRACK 81 AUDIO
    TITLE "2:cjc154_1961"
    INDEX 01 02:40:35
  TRACK 82 AUDIO
    TITLE "3:cjc154_1962"
    INDEX 01 02:42:43
  TRACK 83 AUDIO
    TITLE "2:cjc154_1963"
    INDEX 01 02:44:60
  TRACK 84 AUDIO
    TITLE "3:cjc154_1964"
    INDEX 01 02:46:30
  TRACK 85 AUDIO
    TITLE "2:cjc154_1965"
    INDEX 01 02:48:03
  TRACK 86 AUDIO
    TITLE "3:cjc154_1966"
    INDEX 01 02:49:42
  TRACK 87 AUDIO
    TITLE "2:cjc154_1967"
    INDEX 01 02:50:70
  TRACK 88 AUDIO
    TITLE "3:cjc154_1968"
    INDEX 01 02:52:60
  TRACK 89 AUDIO
    TITLE "2:cjc154_1969"
    INDEX 01 02:54:53
  TRACK 90 AUDIO
    TITLE "3:cjc154_1970"
    INDEX 01 02:57:20
  TRACK 91 AUDIO
    TITLE "2:cjc154_1971"
    INDEX 01 02:59:67
  TRACK 92 AUDIO
    TITLE "3:cjc154_1972"
    INDEX 01 03:01:43
  TRACK 93 AUDIO
    TITLE "2:cjc154_1973"
    INDEX 01 03:03:38
  TRACK 94 AUDIO
    TITLE "3:cjc154_1974"
    INDEX 01 03:06:50
  TRACK 95 AUDIO
    TITLE "2:cjc154_1975"
    INDEX 01 03:09:70
  TRACK 96 AUDIO
    TITLE "3:cjc154_1976"
    INDEX 01 03:12:19
  TRACK 97 AUDIO
    TITLE "2:cjc154_1977"
    INDEX 01 03:14:71
  TRACK 98 AUDIO
    TITLE "3:cjc154_1978"
    INDEX 01 03:16:35
  TRACK 99 AUDIO
    TITLE "2:cjc154_1979"
    INDEX 01 03:18:02
  TRACK 100 AUDIO
    TITLE "3:cjc154_1980"
    INDEX 01 03:19:74
  TRACK 101 AUDIO
    TITLE "2:cjc154_1981"
    INDEX 01 03:22:06
  TRACK 102 AUDIO
    TITLE "3:cjc154_1982"
    INDEX 01 03:23:68
  TRACK 103 AUDIO
    TITLE "2:cjc154_1983"
    INDEX 01 03:25:63
  TRACK 104 AUDIO
    TITLE "3:cjc154_1984"
    INDEX 01 03:27:40
  TRACK 105 AUDIO
    TITLE "2:cjc154_1985"
    INDEX 01 03:29:25
  TRACK 106 AUDIO
    TITLE "3:cjc154_1986"
    INDEX 01 03:30:54
  TRACK 107 AUDIO
    TITLE "2:cjc154_1987"
    INDEX 01 03:32:22
  TRACK 108 AUDIO
    TITLE "3:cjc154_1988"
    INDEX 01 03:33:53
  TRACK 109 AUDIO
    TITLE "2:cjc154_1989"
    INDEX 01 03:35:14
  TRACK 110 AUDIO
    TITLE "3:cjc154_1990"
    INDEX 01 03:37:72
  TRACK 111 AUDIO
    TITLE "2:cjc154_1991"
    INDEX 01 03:40:60
  TRACK 112 AUDIO
    TITLE "3:cjc154_1992"
    INDEX 01 03:43:00
  TRACK 113 AUDIO
    TITLE "2:cjc154_1993"
    INDEX 01 03:45:26
  TRACK 114 AUDIO
    TITLE "3:cjc154_1994"
    INDEX 01 03:47:68
  TRACK 115 AUDIO
    TITLE "2:cjc154_1995"
    INDEX 01 03:50:43
  TRACK 116 AUDIO
    TITLE "3:cjc154_1996"
    INDEX 01 03:52:44
  TRACK 117 AUDIO
    TITLE "2:cjc154_1997"
    INDEX 01 03:54:49
  TRACK 118 AUDIO
    TITLE "3:cjc154_1998"
    INDEX 01 03:57:02
  TRACK 119 AUDIO
    TITLE "2:cjc154_1999"
    INDEX 01 03:59:38
  TRACK 120 AUDIO
    TITLE "3:cjc154_2000"
    INDEX 01 04:01:35
  TRACK 121 AUDIO
    TITLE "2:cjc154_2001"
    INDEX 01 04:03:38
  TRACK 122 AUDIO
    TITLE "3:cjc154_2002"
    INDEX 01 04:05:43
  TRACK 123 AUDIO
    TITLE "2:cjc154_2003"
    INDEX 01 04:07:55
  TRACK 124 AUDIO
    TITLE "3:cjc154_2004"
    INDEX 01 04:10:01
  TRACK 125 AUDIO
    TITLE "2:cjc154_2005"
    INDEX 01 04:12:15
  TRACK 126 AUDIO
    TITLE "3:cjc154_2006"
    INDEX 01 04:14:18
  TRACK 127 AUDIO
    TITLE "2:cjc154_2007"
    INDEX 01 04:16:17
  TRACK 128 AUDIO
    TITLE "3:cjc154_2008"
    INDEX 01 04:18:06
  TRACK 129 AUDIO
    TITLE "2:cjc154_2009"
    INDEX 01 04:19:68
  TRACK 130 AUDIO
    TITLE "3:cjc154_2010"
    INDEX 01 04:21:16
  TRACK 131 AUDIO
    TITLE "2:cjc154_2011"
    INDEX 01 04:22:53
  TRACK 132 AUDIO
    TITLE "3:cjc154_2012"
    INDEX 01 04:25:00
  TRACK 133 AUDIO
    TITLE "2:cjc154_2013"
    INDEX 01 04:27:35
  TRACK 134 AUDIO
    TITLE "3:cjc154_2014"
    INDEX 01 04:29:55
  TRACK 135 AUDIO
    TITLE "2:cjc154_2015"
    INDEX 01 04:32:08
  TRACK 136 AUDIO
    TITLE "3:cjc154_2016"
    INDEX 01 04:33:69
  TRACK 137 AUDIO
    TITLE "2:cjc154_2017"
    INDEX 01 04:35:58
  TRACK 138 AUDIO
    TITLE "3:cjc154_2018"
    INDEX 01 04:37:33
  TRACK 139 AUDIO
    TITLE "2:cjc154_2019"
    INDEX 01 04:39:22
  TRACK 140 AUDIO
    TITLE "3:cjc154_2020"
    INDEX 01 04:41:17
  TRACK 141 AUDIO
    TITLE "2:cjc154_2021"
    INDEX 01 04:43:16
  TRACK 142 AUDIO
    TITLE "3:cjc154_2022"
    INDEX 01 04:45:07
  TRACK 143 AUDIO
    TITLE "2:cjc154_2023"
    INDEX 01 04:47:06
  TRACK 144 AUDIO
    TITLE "3:cjc154_2024"
    INDEX 01 04:48:45
  TRACK 145 AUDIO
    TITLE "2:cjc154_2025"
    INDEX 01 04:50:16
  TRACK 146 AUDIO
    TITLE "3:cjc154_2026"
    INDEX 01 04:51:61
  TRACK 147 AUDIO
    TITLE "2:cjc154_2027"
    INDEX 01 04:53:44
  TRACK 148 AUDIO
    TITLE "3:cjc154_2028"
    INDEX 01 04:55:00
  TRACK 149 AUDIO
    TITLE "2:cjc154_2029"
    INDEX 01 04:56:34
  TRACK 150 AUDIO
    TITLE "3:cjc154_2030"
    INDEX 01 04:58:55
  TRACK 151 AUDIO
    TITLE "2:cjc154_2031"
    INDEX 01 05:01:04
  TRACK 152 AUDIO
    TITLE "3:cjc154_2032"
    INDEX 01 05:02:41
  TRACK 153 AUDIO
    TITLE "2:cjc154_2033"
    INDEX 01 05:04:06
  TRACK 154 AUDIO
    TITLE "3:cjc154_2034"
    INDEX 01 05:05:27
  TRACK 155 AUDIO
    TITLE "2:cjc154_2035"
    INDEX 01 05:06:56
  TRACK 156 AUDIO
    TITLE "3:cjc154_2036"
    INDEX 01 05:08:24
  TRACK 157 AUDIO
    TITLE "2:cjc154_2037"
    INDEX 01 05:09:68
  TRACK 158 AUDIO
    TITLE "3:cjc154_2038"
    INDEX 01 05:11:50
  TRACK 159 AUDIO
    TITLE "2:cjc154_2039"
    INDEX 01 05:13:31
  TRACK 160 AUDIO
    TITLE "3:cjc154_2040"
    INDEX 01 05:15:14
  TRACK 161 AUDIO
    TITLE "2:cjc154_2041"
    INDEX 01 05:17:07
  TRACK 162 AUDIO
    TITLE "3:cjc154_2042"
    INDEX 01 05:19:24
  TRACK 163 AUDIO
    TITLE "2:cjc154_2043"
    INDEX 01 05:21:40
  TRACK 164 AUDIO
    TITLE "3:cjc154_2044"
    INDEX 01 05:23:45
  TRACK 165 AUDIO
    TITLE "2:cjc154_2045"
    INDEX 01 05:25:59
  TRACK 166 AUDIO
    TITLE "3:cjc154_2046"
    INDEX 01 05:27:35
  TRACK 167 AUDIO
    TITLE "2:cjc154_2047"
    INDEX 01 05:29:08
  TRACK 168 AUDIO
    TITLE "3:cjc154_2048"
    INDEX 01 05:30:53
  TRACK 169 AUDIO
    TITLE "2:cjc154_2049"
    INDEX 01 05:32:20
  TRACK 170 AUDIO
    TITLE "3:cjc154_2050"
    INDEX 01 05:34:51
  TRACK 171 AUDIO
    TITLE "2:cjc154_2051"
    INDEX 01 05:37:06
  TRACK 172 AUDIO
    TITLE "3:cjc154_2052"
    INDEX 01 05:38:60
  TRACK 173 AUDIO
    TITLE "2:cjc154_2053"
    INDEX 01 05:40:45
  TRACK 174 AUDIO
    TITLE "3:cjc154_2054"
    INDEX 01 05:41:66
  TRACK 175 AUDIO
    TITLE "2:cjc154_2055"
    INDEX 01 05:43:42
  TRACK 176 AUDIO
    TITLE "3:cjc154_2056"
    INDEX 01 05:45:29
  TRACK 177 AUDIO
    TITLE "2:cjc154_2057"
    INDEX 01 05:47:16
  TRACK 178 AUDIO
    TITLE "3:cjc154_2058"
    INDEX 01 05:49:33
  TRACK 179 AUDIO
    TITLE "2:cjc154_2059"
    INDEX 01 05:51:47
  TRACK 180 AUDIO
    TITLE "3:cjc154_2060"
    INDEX 01 05:53:48
  TRACK 181 AUDIO
    TITLE "2:cjc154_2061"
    INDEX 01 05:55:59
  TRACK 182 AUDIO
    TITLE "3:cjc154_2062"
    INDEX 01 05:57:50
  TRACK 183 AUDIO
    TITLE "2:cjc154_2063"
    INDEX 01 05:59:54
  TRACK 184 AUDIO
    TITLE "3:cjc154_2064"
    INDEX 01 06:01:44
  TRACK 185 AUDIO
    TITLE "2:cjc154_2065"
    INDEX 01 06:03:42
  TRACK 186 AUDIO
    TITLE "3:cjc154_2066"
    INDEX 01 06:05:00
  TRACK 187 AUDIO
    TITLE "2:cjc154_2067"
    INDEX 01 06:06:41
  TRACK 188 AUDIO
    TITLE "3:cjc154_2068"
    INDEX 01 06:08:73
  TRACK 189 AUDIO
    TITLE "2:cjc154_2069"
    INDEX 01 06:11:34
  TRACK 190 AUDIO
    TITLE "3:cjc154_2070"
    INDEX 01 06:12:37
  TRACK 191 AUDIO
    TITLE "2:cjc154_2071"
    INDEX 01 06:13:45
  TRACK 192 AUDIO
    TITLE "3:cjc154_2072"
    INDEX 01 06:15:53
  TRACK 193 AUDIO
    TITLE "2:cjc154_2073"
    INDEX 01 06:17:64
  TRACK 194 AUDIO
    TITLE "3:cjc154_2074"
    INDEX 01 06:19:51
  TRACK 195 AUDIO
    TITLE "2:cjc154_2075"
    INDEX 01 06:21:42
  TRACK 196 AUDIO
    TITLE "3:cjc154_2076"
    INDEX 01 06:22:67
  TRACK 197 AUDIO
    TITLE "2:cjc154_2077"
    INDEX 01 06:24:31
  TRACK 198 AUDIO
    TITLE "3:cjc154_2078"
    INDEX 01 06:26:10
  TRACK 199 AUDIO
    TITLE "2:cjc154_2079"
    INDEX 01 06:28:01
  TRACK 200 AUDIO
    TITLE "3:cjc154_2080"
    INDEX 01 06:30:20
  TRACK 201 AUDIO
    TITLE "2:cjc154_2081"
    INDEX 01 06:32:40
  TRACK 202 AUDIO
    TITLE "3:cjc154_2082"
    INDEX 01 06:33:51
  TRACK 203 AUDIO
    TITLE "2:cjc154_2083"
    INDEX 01 06:34:72
  TRACK 204 AUDIO
    TITLE "3:cjc154_2084"
    INDEX 01 06:36:56
  TRACK 205 AUDIO
    TITLE "2:cjc154_2085"
    INDEX 01 06:38:47
  TRACK 206 AUDIO
    TITLE "3:cjc154_2086"
    INDEX 01 06:39:74
  TRACK 207 AUDIO
    TITLE "2:cjc154_2087"
    INDEX 01 06:41:29
  TRACK 208 AUDIO
    TITLE "3:cjc154_2088"
    INDEX 01 06:43:24
  TRACK 209 AUDIO
    TITLE "2:cjc154_2089"
    INDEX 01 06:45:25
  TRACK 210 AUDIO
    TITLE "3:cjc154_2090"
    INDEX 01 06:47:12
  TRACK 211 AUDIO
    TITLE "2:cjc154_2091"
    INDEX 01 06:49:07
  TRACK 212 AUDIO
    TITLE "3:cjc154_2092"
    INDEX 01 06:51:06
  TRACK 213 AUDIO
    TITLE "0:"
    INDEX 01 06:53:15
